<?xml version="1.0" encoding="UTF-8"?>
<svg width="3300px" height="2200px" viewBox="0 0 3300 2200" version="1.1" xmlns="http://www.w3.org/2000/svg" xmlns:xlink="http://www.w3.org/1999/xlink">
    <title>Slice 1</title>
    <g id="Page-1" stroke="none" stroke-width="1" fill="none" fill-rule="evenodd">
        <g id="testClock">
            <g id="Notes">
                <rect id="artboard" fill="#FFFFFF" fill-rule="nonzero" x="0" y="0" width="3300" height="2200"></rect>
                <line x1="263" y1="292" x2="3036" y2="292" id="Path" stroke="#000000" stroke-width="0.5"></line>
                <text id="Weight/Scale-Variations" fill="#000000" fill-rule="nonzero" font-family="Helvetica" font-size="13" font-weight="normal">
                    <tspan x="263" y="322">Weight/Scale Variations</tspan>
                </text>
                <text id="Ultralight" fill="#000000" fill-rule="nonzero" font-family="Helvetica" font-size="13" font-weight="normal">
                    <tspan x="533.711" y="322">Ultralight</tspan>
                </text>
                <text id="Thin" fill="#000000" fill-rule="nonzero" font-family="Helvetica" font-size="13" font-weight="normal">
                    <tspan x="843.422" y="322">Thin</tspan>
                </text>
                <text id="Light" fill="#000000" fill-rule="nonzero" font-family="Helvetica" font-size="13" font-weight="normal">
                    <tspan x="1138.63" y="322">Light</tspan>
                </text>
                <text id="Regular" fill="#000000" fill-rule="nonzero" font-family="Helvetica" font-size="13" font-weight="normal">
                    <tspan x="1426.84" y="322">Regular</tspan>
                </text>
                <text id="Medium" fill="#000000" fill-rule="nonzero" font-family="Helvetica" font-size="13" font-weight="normal">
                    <tspan x="1723.06" y="322">Medium</tspan>
                </text>
                <text id="Semibold" fill="#000000" fill-rule="nonzero" font-family="Helvetica" font-size="13" font-weight="normal">
                    <tspan x="2015.77" y="322">Semibold</tspan>
                </text>
                <text id="Bold" fill="#000000" fill-rule="nonzero" font-family="Helvetica" font-size="13" font-weight="normal">
                    <tspan x="2326.48" y="322">Bold</tspan>
                </text>
                <text id="Heavy" fill="#000000" fill-rule="nonzero" font-family="Helvetica" font-size="13" font-weight="normal">
                    <tspan x="2618.19" y="322">Heavy</tspan>
                </text>
                <text id="Black" fill="#000000" fill-rule="nonzero" font-family="Helvetica" font-size="13" font-weight="normal">
                    <tspan x="2917.4" y="322">Black</tspan>
                </text>
                <line x1="263" y1="1903" x2="3036" y2="1903" id="Path" stroke="#000000" stroke-width="0.5"></line>
                <g id="Group" transform="translate(264.3672, 1918.0684)" fill="#000000" fill-rule="nonzero">
                    <path d="M7.88086,15.761678 C12.18751,15.761678 15.77151,12.18746 15.77151,7.88082 C15.77151,3.5742 12.17771,0 7.87109,0 C3.57422,0 -8.8817842e-16,3.5742 -8.8817842e-16,7.88082 C-8.8817842e-16,12.18746 3.58398,15.761678 7.88086,15.761678 Z M7.88086,14.277303 C4.33593,14.277303 1.5039,11.43551 1.5039,7.88082 C1.5039,4.3261 4.32617,1.4843 7.87109,1.4843 C11.42581,1.4843 14.27731,4.3261 14.27731,7.88082 C14.27731,11.43551 11.43551,14.277303 7.88086,14.277303 Z M4.28711,7.88082 C4.28711,8.31051 4.58984,8.60348 5.03906,8.60348 L7.13867,8.60348 L7.13867,10.72262 C7.13867,11.16207 7.43164,11.4648 7.86133,11.4648 C8.31054,11.4648 8.60351,11.16207 8.60351,10.72262 L8.60351,8.60348 L10.72261,8.60348 C11.16211,8.60348 11.46481,8.31051 11.46481,7.88082 C11.46481,7.44137 11.16211,7.13863 10.72261,7.13863 L8.60351,7.13863 L8.60351,5.02926 C8.60351,4.58 8.31054,4.2773 7.86133,4.2773 C7.43164,4.2773 7.13867,4.58 7.13867,5.02926 L7.13867,7.13863 L5.03906,7.13863 C4.58984,7.13863 4.28711,7.44137 4.28711,7.88082 Z" id="Shape"></path>
                </g>
                <g id="Group" transform="translate(283.615, 1915.9883)" fill="#000000" fill-rule="nonzero">
                    <path d="M9.96095,19.92186 C15.41015,19.92186 19.92185,15.40037 19.92185,9.96092 C19.92185,4.5117 15.40035,0 9.95115,0 C4.51172,0 8.8817842e-16,4.5117 8.8817842e-16,9.96092 C8.8817842e-16,15.40037 4.52148,19.92186 9.96095,19.92186 Z M9.96095,18.2617 C5.35156,18.2617 1.66992,14.57029 1.66992,9.96092 C1.66992,5.3515 5.34179,1.6601 9.95115,1.6601 C14.56055,1.6601 18.26175,5.3515 18.26175,9.96092 C18.26175,14.57029 14.57035,18.2617 9.96095,18.2617 Z M5.42968,9.96092 C5.42968,10.43943 5.76172,10.7617 6.25976,10.7617 L9.13085,10.7617 L9.13085,13.64256 C9.13085,14.13084 9.46285,14.47264 9.94145,14.47264 C10.42965,14.47264 10.77145,14.14061 10.77145,13.64256 L10.77145,10.7617 L13.65235,10.7617 C14.14065,10.7617 14.48245,10.43943 14.48245,9.96092 C14.48245,9.47264 14.14065,9.13084 13.65235,9.13084 L10.77145,9.13084 L10.77145,6.2597 C10.77145,5.7617 10.42965,5.4199 9.94145,5.4199 C9.46285,5.4199 9.13085,5.7617 9.13085,6.2597 L9.13085,9.13084 L6.25976,9.13084 C5.76172,9.13084 5.42968,9.47264 5.42968,9.96092 Z" id="Shape"></path>
                </g>
                <g id="Group" transform="translate(307.9019, 1913.2246)" fill="#000000" fill-rule="nonzero">
                    <path d="M12.71484,25.43946 C19.67774,25.43946 25.43944,19.6777438 25.43944,12.72462 C25.43944,5.7617 19.66794,0 12.70504,0 C5.75195,0 0,5.7617 0,12.72462 C0,19.6777438 5.76172,25.43946 12.71484,25.43946 Z M12.71484,23.62306 C6.67969,23.62306 1.82617,18.75978 1.82617,12.72462 C1.82617,6.6797 6.66992,1.8262 12.70504,1.8262 C18.75004,1.8262 23.61324,6.6797 23.61324,12.72462 C23.61324,18.75978 18.75974,23.62306 12.71484,23.62306 Z M6.94336,12.72462 C6.94336,13.2422 7.31445,13.60352 7.86134,13.60352 L11.80664,13.60352 L11.80664,17.5586 C11.80664,18.09571 12.17774,18.47657 12.69534,18.47657 C13.23244,18.47657 13.60354,18.10548 13.60354,17.5586 L13.60354,13.60352 L17.55864,13.60352 C18.09574,13.60352 18.47654,13.2422 18.47654,12.72462 C18.47654,12.17774 18.10544,11.80665 17.55864,11.80665 L13.60354,11.80665 L13.60354,7.8613 C13.60354,7.3145 13.23244,6.9336 12.69534,6.9336 C12.17774,6.9336 11.80664,7.3145 11.80664,7.8613 L11.80664,11.80665 L7.86134,11.80665 C7.31445,11.80665 6.94336,12.17774 6.94336,12.72462 Z" id="Shape"></path>
                </g>
                <text id="Design-Variations" fill="#000000" fill-rule="nonzero" font-family="Helvetica" font-size="13" font-weight="normal">
                    <tspan x="263" y="1953">Design Variations</tspan>
                </text>
                <text id="Symbols-are-supported-in-up-to-nine-weights-and-three-scales." fill="#000000" fill-rule="nonzero" font-family="Helvetica" font-size="13" font-weight="normal">
                    <tspan x="263" y="1971">Symbols are supported in up to nine weights and three scales.</tspan>
                </text>
                <text id="For-optimal-layout-with-text-and-other-symbols,-vertically-align" fill="#000000" fill-rule="nonzero" font-family="Helvetica" font-size="13" font-weight="normal">
                    <tspan x="263" y="1989">For optimal layout with text and other symbols, vertically align</tspan>
                </text>
                <text id="symbols-with-the-adjacent-text." fill="#000000" fill-rule="nonzero" font-family="Helvetica" font-size="13" font-weight="normal">
                    <tspan x="263" y="2007">symbols with the adjacent text.</tspan>
                </text>
                <line x1="776" y1="1919" x2="776" y2="1933" id="Path" stroke="#00AEEF" stroke-width="0.5"></line>
                <g id="Group" transform="translate(778.4902, 1918.7324)" fill="#000000" fill-rule="nonzero">
                    <path d="M0.82032,14.42385 C1.33789,14.42385 1.5918,14.2285375 1.77735,13.681662 L3.03711,10.2344 L8.79887,10.2344 L10.05857,13.681662 C10.24417,14.2285375 10.49807,14.42385 11.00587,14.42385 C11.52347,14.42385 11.85547,14.11135 11.85547,13.623069 C11.85547,13.457053 11.82617,13.300803 11.74807,13.09572 L7.16797,0.8985 C6.94336,0.3028 6.54297,0 5.91797,0 C5.3125,0 4.90235,0.293 4.6875,0.8887 L0.10743,13.10549 C0.0293,13.310569 -4.4408921e-16,13.466819 -4.4408921e-16,13.632834 C-4.4408921e-16,14.121116 0.3125,14.42385 0.82032,14.42385 Z M3.51563,8.75002 L5.88868,2.1778 L5.9375,2.1778 L8.31057,8.75002 L3.51563,8.75002 Z" id="Shape"></path>
                </g>
                <line x1="793.197" y1="1919" x2="793.197" y2="1933" id="Path" stroke="#00AEEF" stroke-width="0.5"></line>
                <text id="Margins" fill="#000000" fill-rule="nonzero" font-family="Helvetica" font-size="13" font-weight="normal">
                    <tspan x="776" y="1953">Margins</tspan>
                </text>
                <text id="Leading-and-trailing-margins-on-the-left-and-right-side-of-each-symbol" fill="#000000" fill-rule="nonzero" font-family="Helvetica" font-size="13" font-weight="normal">
                    <tspan x="776" y="1971">Leading and trailing margins on the left and right side of each symbol</tspan>
                </text>
                <text id="can-be-adjusted-by-modifying-the-x-location-of-the-margin-guidelines." fill="#000000" fill-rule="nonzero" font-family="Helvetica" font-size="13" font-weight="normal">
                    <tspan x="776" y="1989">can be adjusted by modifying the x-location of the margin guidelines.</tspan>
                </text>
                <text id="Modifications-are-automatically-applied-proportionally-to-all" fill="#000000" fill-rule="nonzero" font-family="Helvetica" font-size="13" font-weight="normal">
                    <tspan x="776" y="2007">Modifications are automatically applied proportionally to all</tspan>
                </text>
                <text id="scales-and-weights." fill="#000000" fill-rule="nonzero" font-family="Helvetica" font-size="13" font-weight="normal">
                    <tspan x="776" y="2025">scales and weights.</tspan>
                </text>
                <g id="Group" transform="translate(1291.2481, 1914.5174)" fill="#000000" fill-rule="nonzero">
                    <path d="M0.593673634,20.347834 L2.29289363,22.056824 C3.15226363,22.925964 4.13859363,22.867374 5.06632363,21.841984 L15.7596736,10.054874 L14.7928736,9.07830404 L4.17765363,20.757994 C3.82609363,21.158384 3.49406363,21.256044 3.02531363,20.787294 L1.85343363,19.625184 C1.38468363,19.166198 1.49210363,18.824401 1.89249363,18.4630728 L13.3670736,7.66230404 L12.3905736,6.69550404 L0.798753634,17.584166 C-0.187576366,18.5021352 -0.265706366,19.478698 0.593673634,20.347834 Z M7.00968363,2.15450404 C6.58976363,2.56460404 6.56046363,3.14080404 6.79484363,3.53140404 C7.02921363,3.89280404 7.48820363,4.12710404 8.13277363,3.96110404 C9.59757363,3.61930404 11.1209736,3.56070404 12.5467736,4.49820404 L11.9608736,5.95330404 C11.6190736,6.78340404 11.7948736,7.36930404 12.3319736,7.91620404 L14.6268736,10.230654 C15.1151736,10.718934 15.5252736,10.738464 16.0916736,10.640804 L17.1561736,10.445494 L17.8202736,11.119324 L17.7811736,11.675964 C17.7420736,12.174014 17.8690736,12.554874 18.3573736,13.033384 L19.1190736,13.775574 C19.5975736,14.254084 20.2127736,14.283384 20.6815736,13.814634 L23.5916736,10.894714 C24.0604736,10.425964 24.0409736,9.83026404 23.5623736,9.35174404 L22.7909736,8.59002404 C22.3123736,8.11150404 21.9413736,7.95530404 21.4627736,7.99430404 L20.8866736,8.04310404 L20.2420736,7.40840404 L20.4862736,6.28530404 C20.6131736,5.71890404 20.4569736,5.27950404 19.8709736,4.69350404 L17.6737736,2.50600404 C14.3338736,-0.814295964 9.90027363,-0.736195964 7.00968363,2.15450404 Z M8.50387363,2.52560404 C10.9354736,0.748204036 14.2264736,1.05100404 16.4530736,3.27750404 L18.8846736,5.68960404 C19.1190736,5.92400404 19.1580736,6.10960404 19.0897736,6.45140404 L18.7674736,7.93570404 L20.2713736,9.42010404 L21.2577736,9.36151404 C21.5116736,9.35174404 21.5897736,9.37127404 21.7850736,9.56658404 L22.3612736,10.142764 L19.9198736,12.584164 L19.3436736,12.007994 C19.1483736,11.812684 19.1190736,11.734554 19.1288736,11.470884 L19.1971736,10.494324 L17.7030736,9.00994404 L16.1795736,9.26385404 C15.8573736,9.33221404 15.7108736,9.30291404 15.4666736,9.06854404 L13.4647736,7.06660404 C13.2108736,6.83220404 13.1815736,6.66620404 13.3377736,6.29510404 L14.2166736,4.20530404 C12.6541736,2.75020404 10.6229736,2.12520404 8.59167363,2.72090404 C8.43547363,2.75990404 8.37687363,2.63300404 8.50387363,2.52560404 Z" id="Shape"></path>
                </g>
                <text id="Exporting" fill="#000000" fill-rule="nonzero" font-family="Helvetica" font-size="13" font-weight="normal">
                    <tspan x="1289" y="1953">Exporting</tspan>
                </text>
                <text id="Symbols-should-be-outlined-when-exporting-to-ensure-the" fill="#000000" fill-rule="nonzero" font-family="Helvetica" font-size="13" font-weight="normal">
                    <tspan x="1289" y="1971">Symbols should be outlined when exporting to ensure the</tspan>
                </text>
                <text id="design-is-preserved-when-submitting-to-Xcode." fill="#000000" fill-rule="nonzero" font-family="Helvetica" font-size="13" font-weight="normal">
                    <tspan x="1289" y="1989">design is preserved when submitting to Xcode.</tspan>
                </text>
                <text id="template-version" fill="#000000" fill-rule="nonzero" font-family="Helvetica" font-size="13" font-weight="normal">
                    <tspan x="2952" y="1933">Template v.4.0</tspan>
                </text>
                <text id="Requires-Xcode-14-or-greater" fill="#000000" fill-rule="nonzero" font-family="Helvetica" font-size="13" font-weight="normal">
                    <tspan x="2865" y="1951">Requires Xcode 14 or greater</tspan>
                </text>
                <text id="descriptive-name" fill="#000000" fill-rule="nonzero" font-family="Helvetica" font-size="13" font-weight="normal">
                    <tspan x="2911" y="1969">Generated from clock</tspan>
                </text>
                <text id="Typeset-at-100-points" fill="#000000" fill-rule="nonzero" font-family="Helvetica" font-size="13" font-weight="normal">
                    <tspan x="2912" y="1987">Typeset at 100 points</tspan>
                </text>
                <text id="Small" fill="#000000" fill-rule="nonzero" font-family="Helvetica" font-size="13" font-weight="normal">
                    <tspan x="263" y="726">Small</tspan>
                </text>
                <text id="Medium" fill="#000000" fill-rule="nonzero" font-family="Helvetica" font-size="13" font-weight="normal">
                    <tspan x="263" y="1156">Medium</tspan>
                </text>
                <text id="Large" fill="#000000" fill-rule="nonzero" font-family="Helvetica" font-size="13" font-weight="normal">
                    <tspan x="263" y="1586">Large</tspan>
                </text>
            </g>
            <g id="Guides" transform="translate(263, 625.041)">
                <g id="H-reference" transform="translate(76.9937, 0.5)" fill="#27AAE1" fill-rule="nonzero">
                    <path d="M0,70.459 L2.644096,70.459 L28.334446,3.3267 L29.036646,3.3267 L29.036646,0 L27.128946,0 L0,70.459 Z M10.694846,45.9791 L45.987846,45.9791 L45.237846,43.7305 L11.444846,43.7305 L10.694846,45.9791 Z M54.125946,70.459 L56.770046,70.459 L29.644546,0 L28.438946,0 L28.438946,3.3267 L54.125946,70.459 Z" id="Shape"></path>
                </g>
                <line x1="0" y1="70.959" x2="2773" y2="70.959" id="Baseline-S" stroke="#27AAE1" stroke-width="0.5"></line>
                <line x1="0" y1="0.5" x2="2773" y2="0.5" id="Capline-S" stroke="#27AAE1" stroke-width="0.5"></line>
                <g id="H-reference" transform="translate(76.9937, 430.5)" fill="#27AAE1" fill-rule="nonzero">
                    <path d="M0,70.459 L2.644096,70.459 L28.334446,3.3267 L29.036646,3.3267 L29.036646,0 L27.128946,0 L0,70.459 Z M10.694846,45.9791 L45.987846,45.9791 L45.237846,43.7305 L11.444846,43.7305 L10.694846,45.9791 Z M54.125946,70.459 L56.770046,70.459 L29.644546,0 L28.438946,0 L28.438946,3.3267 L54.125946,70.459 Z" id="Shape"></path>
                </g>
                <line x1="0" y1="500.959" x2="2773" y2="500.959" id="Baseline-M" stroke="#27AAE1" stroke-width="0.5"></line>
                <line x1="0" y1="430.499" x2="2773" y2="430.499" id="Capline-M" stroke="#27AAE1" stroke-width="0.5"></line>
                <g id="H-reference" transform="translate(76.9937, 860.5)" fill="#27AAE1" fill-rule="nonzero">
                    <path d="M0,70.459 L2.644096,70.459 L28.334446,3.3267 L29.036646,3.3267 L29.036646,0 L27.128946,0 L0,70.459 Z M10.694846,45.9791 L45.987846,45.9791 L45.237846,43.7305 L11.444846,43.7305 L10.694846,45.9791 Z M54.125946,70.459 L56.770046,70.459 L29.644546,0 L28.438946,0 L28.438946,3.3267 L54.125946,70.459 Z" id="Shape"></path>
                </g>
                <line x1="0" y1="930.959" x2="2773" y2="930.959" id="Baseline-L" stroke="#27AAE1" stroke-width="0.5"></line>
                <line x1="0" y1="860.499" x2="2773" y2="860.499" id="Capline-L" stroke="#27AAE1" stroke-width="0.5"></line>
                <line x1="1128.32" y1="405.749" x2="1128.32" y2="525.079" id="left-margin-Regular-M" stroke="#00AEEF" stroke-width="0.5"></line>
                <line x1="1245.37" y1="405.749" x2="1245.37" y2="525.079" id="right-margin-Regular-M" stroke="#00AEEF" stroke-width="0.5"></line>
            </g>
            <g id="Symbols" transform="translate(1396, 1029)" fill="#000000" fill-rule="nonzero">
                <g id="Regular-M" transform="translate(-0, 0)">
                    <path d="M58.1821072,1.98982466 C64.5907183,7.82893288 70.9721358,13.6996608 77.3716823,19.5493089 C84.263734,25.8506673 91.1633395,32.1414858 98.0599235,38.4383271 L101.501039,41.57282 C102.646945,42.6185293 103.789451,43.6676265 104.92176,44.7276399 C106.352443,46.0662081 106.993002,47.7827071 106.994512,49.7175328 C107.003577,63.1152597 107.000008,76.5144923 106.997534,89.9122192 L106.991491,97.3860725 C106.991491,98.631566 106.993002,99.876948 106.997534,101.122163 C107.026238,109.42008 100.427272,116.007522 92.1211565,116 C79.2223538,115.986442 66.3250618,115.996982 53.4262592,115.996982 C40.5909081,115.995476 27.7540462,115.998488 14.9171844,115.995476 C6.50229438,115.992465 0.0105919732,109.48332 0.0121027255,101.076992 C0.01512423,84.0610654 0.0196564867,67.0466448 8.3305988e-06,50.0307186 C-0.003004797,47.7013993 0.811290664,45.8283073 2.547145,44.2428042 C11.9394917,35.6708488 21.2970911,27.0597452 30.6697981,18.4652043 C36.6569092,12.9754187 42.6500634,7.49165587 48.6371745,2.00337597 C51.5287543,-0.648163374 55.2482264,-0.682794495 58.1821072,1.98982466 Z M66.9964699,67.0006817 L54.9751572,67.0006817 C53.0390947,67.0006817 52.0061206,68.0192018 52.0045925,69.9580714 C51.9984803,76.6398087 51.9984803,83.3215461 52.0045925,90.0048173 C52.0061206,91.9084068 53.0864648,92.9944192 54.9812694,92.9959531 C62.9654259,93.0005549 70.9495824,93.0020888 78.9337389,92.9959531 C80.8682733,92.9959531 81.9883473,91.8930677 81.9914034,89.9541981 C82.003628,83.3016052 82.0020999,76.6505462 81.9914034,69.9979533 C81.9883473,68.0774906 80.906475,67.0037496 79.0177826,67.0022157 C75.0111878,66.9991478 71.0030648,67.0022157 66.9964699,67.0022157 Z" id="Shape"></path>
                </g>
            </g>
        </g>
    </g>
</svg>